<?xml version="1.0" encoding="UTF-8" standalone="no"?><svg xmlns="http://www.w3.org/2000/svg" xmlns:xlink="http://www.w3.org/1999/xlink" contentStyleType="text/css" height="386px" preserveAspectRatio="none" style="width:198px;height:386px;background:#FFFFFF;" version="1.1" viewBox="0 0 198 386" width="198px" zoomAndPan="magnify"><defs/><g><rect fill="none" height="26.2969" id="_title" style="stroke:none;stroke-width:1.0;" width="146" x="24.5" y="15"/><text fill="#000000" font-family="sans-serif" font-size="14" font-weight="bold" lengthAdjust="spacing" textLength="136" x="29.5" y="32.9951">Function Call 流程</text><ellipse cx="90" cy="57.2969" fill="#222222" rx="10" ry="10" style="stroke:#222222;stroke-width:1.0;"/><rect fill="#F1F1F1" height="33.9688" rx="12.5" ry="12.5" style="stroke:#181818;stroke-width:0.5;" width="68" x="56" y="87.2969"/><text fill="#000000" font-family="sans-serif" font-size="12" lengthAdjust="spacing" textLength="48" x="66" y="108.4355">用户输入</text><rect fill="#F1F1F1" height="33.9688" rx="12.5" ry="12.5" style="stroke:#181818;stroke-width:0.5;" width="92" x="44" y="141.2656"/><text fill="#000000" font-family="sans-serif" font-size="12" lengthAdjust="spacing" textLength="72" x="54" y="162.4043">语言模型分析</text><rect fill="#F1F1F1" height="33.9688" rx="12.5" ry="12.5" style="stroke:#181818;stroke-width:0.5;" width="92" x="44" y="243.6367"/><text fill="#000000" font-family="sans-serif" font-size="12" lengthAdjust="spacing" textLength="72" x="54" y="264.7754">调用外部函数</text><polygon fill="#F1F1F1" points="32,195.2344,148,195.2344,160,207.2344,148,219.2344,32,219.2344,20,207.2344,32,195.2344" style="stroke:#181818;stroke-width:0.5;"/><text fill="#000000" font-family="sans-serif" font-size="11" lengthAdjust="spacing" textLength="11" x="94" y="229.4448">是</text><text fill="#000000" font-family="sans-serif" font-size="11" lengthAdjust="spacing" textLength="116" x="32" y="211.0425">是否需要调用外部函数?</text><polygon fill="#F1F1F1" points="90,297.6055,102,309.6055,90,321.6055,78,309.6055,90,297.6055" style="stroke:#181818;stroke-width:0.5;"/><rect fill="#F1F1F1" height="33.9688" rx="12.5" ry="12.5" style="stroke:#181818;stroke-width:0.5;" width="116" x="32" y="341.6055"/><text fill="#000000" font-family="sans-serif" font-size="12" lengthAdjust="spacing" textLength="96" x="42" y="362.7441">语言模型输出结果</text><line style="stroke:#181818;stroke-width:1.0;" x1="90" x2="90" y1="67.2969" y2="87.2969"/><polygon fill="#181818" points="86,77.2969,90,87.2969,94,77.2969,90,81.2969" style="stroke:#181818;stroke-width:1.0;"/><line style="stroke:#181818;stroke-width:1.0;" x1="90" x2="90" y1="121.2656" y2="141.2656"/><polygon fill="#181818" points="86,131.2656,90,141.2656,94,131.2656,90,135.2656" style="stroke:#181818;stroke-width:1.0;"/><line style="stroke:#181818;stroke-width:1.0;" x1="90" x2="90" y1="219.2344" y2="243.6367"/><polygon fill="#181818" points="86,233.6367,90,243.6367,94,233.6367,90,237.6367" style="stroke:#181818;stroke-width:1.0;"/><line style="stroke:#181818;stroke-width:1.0;" x1="160" x2="172" y1="207.2344" y2="207.2344"/><polygon fill="#181818" points="168,250.6211,172,260.6211,176,250.6211,172,254.6211" style="stroke:#181818;stroke-width:1.0;"/><line style="stroke:#181818;stroke-width:1.0;" x1="172" x2="172" y1="207.2344" y2="309.6055"/><line style="stroke:#181818;stroke-width:1.0;" x1="172" x2="102" y1="309.6055" y2="309.6055"/><polygon fill="#181818" points="112,305.6055,102,309.6055,112,313.6055,108,309.6055" style="stroke:#181818;stroke-width:1.0;"/><line style="stroke:#181818;stroke-width:1.0;" x1="90" x2="90" y1="277.6055" y2="297.6055"/><polygon fill="#181818" points="86,287.6055,90,297.6055,94,287.6055,90,291.6055" style="stroke:#181818;stroke-width:1.0;"/><line style="stroke:#181818;stroke-width:1.0;" x1="90" x2="90" y1="175.2344" y2="195.2344"/><polygon fill="#181818" points="86,185.2344,90,195.2344,94,185.2344,90,189.2344" style="stroke:#181818;stroke-width:1.0;"/><line style="stroke:#181818;stroke-width:1.0;" x1="90" x2="90" y1="321.6055" y2="341.6055"/><polygon fill="#181818" points="86,331.6055,90,341.6055,94,331.6055,90,335.6055" style="stroke:#181818;stroke-width:1.0;"/></g></svg>